<svg xmlns="http://www.w3.org/2000/svg" viewBox="0 0 256 256">
  <rect width="256" height="256" fill="#1a1a2e" rx="32"/>
  <g transform="translate(128, 128)">
    <rect x="-80" y="-80" width="40" height="40" fill="#00d9ff" rx="6"/>
    <rect x="-40" y="-80" width="40" height="40" fill="#00d9ff" rx="6"/>
    <rect x="0" y="-80" width="40" height="40" fill="#00d9ff" rx="6"/>
    <rect x="40" y="-80" width="40" height="40" fill="#00d9ff" rx="6"/>
    <rect x="-4" y="-40" width="40" height="40" fill="#ffd700" rx="6"/>
    <rect x="-4" y="0" width="40" height="40" fill="#ffd700" rx="6"/>
    <rect x="-4" y="40" width="40" height="40" fill="#ffd700" rx="6"/>
  </g>
  <g transform="translate(128, 128)" opacity="0.15">
    <rect x="-82" y="-82" width="40" height="40" fill="none" stroke="#fff" stroke-width="2" rx="6"/>
    <rect x="-42" y="-82" width="40" height="40" fill="none" stroke="#fff" stroke-width="2" rx="6"/>
    <rect x="-2" y="-82" width="40" height="40" fill="none" stroke="#fff" stroke-width="2" rx="6"/>
    <rect x="38" y="-82" width="40" height="40" fill="none" stroke="#fff" stroke-width="2" rx="6"/>
    <rect x="-6" y="-42" width="40" height="40" fill="none" stroke="#fff" stroke-width="2" rx="6"/>
    <rect x="-6" y="-2" width="40" height="40" fill="none" stroke="#fff" stroke-width="2" rx="6"/>
    <rect x="-6" y="38" width="40" height="40" fill="none" stroke="#fff" stroke-width="2" rx="6"/>
  </g>
</svg>